<?xml version="1.0" standalone="no"?>
<!DOCTYPE svg PUBLIC "-//W3C//DTD SVG 20010904//EN"
 "http://www.w3.org/TR/2001/REC-SVG-20010904/DTD/svg10.dtd">
<svg version="1.0" xmlns="http://www.w3.org/2000/svg"
 width="700.000000pt" height="700.000000pt" viewBox="0 0 700.000000 700.000000"
 preserveAspectRatio="xMidYMid meet">
<metadata>
Created by potrace 1.14, written by Peter Selinger 2001-2017
</metadata>
<g transform="translate(0.000000,700.000000) scale(0.100000,-0.100000)"
fill="#000000" stroke="none">
<path d="M2627 4952 c-2 -4 -3 -659 -3 -1457 l1 -1450 293 -2 292 -1 0 726 0
727 286 -715 c157 -393 290 -720 295 -727 8 -8 88 -11 297 -10 l287 2 0 1457
0 1456 -293 0 -292 0 2 -719 c2 -396 1 -719 -2 -719 -4 0 -135 324 -294 719
l-287 719 -290 0 c-159 0 -290 -3 -292 -6z"/>
</g>
</svg>
